<mxfile host="app.diagrams.net" modified="2024-03-30T18:54:05.007Z" agent="Mozilla/5.0 (Windows NT 10.0; Win64; x64) AppleWebKit/537.36 (KHTML, like Gecko) Chrome/122.0.0.0 Safari/537.36" version="24.2.1" etag="lYU6mWaP2GTTn94w5cc2" type="github">
  <diagram name="Page-1" id="Eh_-TRftAPIfI9Zkz9D_">
    <mxGraphModel>
      <root>
        <mxCell id="0" />
        <mxCell id="1" parent="0" />
      </root>
    </mxGraphModel>
  </diagram>
</mxfile>
